Coordinates
version=1
nRows=32
nColumns=12
inDegrees=yes

Units are S.I. units (second, meters, Newtons, ...)
Angles are in degrees

endheader
time	SC_y	SC_z	SC_x	AC_y	AC_z	AC_x	GH_y	GH_z	GH_yy	EL_x	PS_y
       0.0              -43.67           14.0           69.9          39.29         -5.281          6.881         -43.81           21.8          154.7          62.95          127.8
   0.03937              -43.67           14.0          69.89          39.29         -5.282          6.881         -43.81           21.8          154.7          62.95          127.8
   0.07874              -43.67           14.0          69.89           39.3         -5.283          6.881         -43.81          21.81          154.6          62.95          127.8
    0.1181              -43.68           14.0          69.88           39.3         -5.284          6.881          -43.8          21.82          154.6          62.95          127.8
    0.1575              -43.68           14.0          69.87           39.3         -5.285          6.882          -43.8          21.83          154.5          62.95          127.8
    0.1968              -43.68           14.0          69.87          39.31         -5.287          6.882          -43.8          21.84          154.5          62.95          127.8
    0.2362              -43.68           14.0          69.86          39.31         -5.288          6.882          -43.8          21.85          154.4          62.95          127.8
    0.2756              -43.68           14.0          69.85          39.32         -5.289          6.882         -43.79          21.86          154.3          62.95          127.8
    0.3149              -43.68           14.0          69.84          39.32         -5.291          6.883         -43.79          21.88          154.3          62.95          127.8
    0.3543              -43.69           14.0          69.83          39.32         -5.292          6.883         -43.79          21.89          154.2          62.95          127.7
    0.3937              -43.69           14.0          69.82          39.33         -5.294          6.883         -43.78           21.9          154.1          62.95          127.7
     0.433              -43.69           14.0          69.81          39.34         -5.296          6.884         -43.78          21.92          154.0          62.95          127.7
    0.4724              -43.69           14.0           69.8          39.34         -5.298          6.884         -43.77          21.93          153.9          62.95          127.7
    0.5118              -43.69           14.0          69.79          39.35           -5.3          6.884         -43.77          21.95          153.8          62.95          127.7
    0.5511               -43.7           14.0          69.78          39.36         -5.303          6.885         -43.76          21.97          153.7          62.95          127.7
    0.5905               -43.7           14.0          69.76          39.36         -5.305          6.885         -43.76          21.99          153.6          62.96          127.6
    0.6299               -43.7           14.0          69.75          39.37         -5.308          6.886         -43.75          22.01          153.5          62.96          127.6
    0.6693              -43.71           14.0          69.73          39.38         -5.311          6.886         -43.74          22.04          153.4          62.96          127.6
    0.7086              -43.71          13.99          69.71          39.39         -5.314          6.887         -43.74          22.06          153.2          62.96          127.6
     0.748              -43.72          13.99          69.69           39.4         -5.318          6.887         -43.73          22.09          153.0          62.96          127.5
    0.7874              -43.72          13.99          69.67          39.41         -5.322          6.888         -43.72          22.12          152.9          62.96          127.5
    0.8267              -43.73          13.99          69.64          39.43         -5.326          6.889         -43.71          22.16          152.7          62.96          127.5
    0.8661              -43.73          13.99          69.62          39.44         -5.331           6.89          -43.7           22.2          152.4          62.97          127.4
    0.9055              -43.74          13.99          69.59          39.46         -5.337          6.891         -43.69          22.24          152.2          62.97          127.4
    0.9448              -43.74          13.99          69.55          39.48         -5.343          6.892         -43.67          22.29          151.9          62.97          127.3
    0.9842              -43.75          13.99          69.52           39.5         -5.349          6.893         -43.66          22.34          151.6          62.97          127.3
     1.024              -43.76          13.98          69.47          39.52         -5.357          6.894         -43.64           22.4          151.3          62.98          127.2
     1.063              -43.77          13.98          69.43          39.55         -5.365          6.896         -43.62          22.47          150.9          62.98          127.1
     1.102              -43.78          13.98          69.37          39.57         -5.375          6.897          -43.6          22.55          150.5          62.98          127.1
     1.142              -43.79          13.98          69.31          39.61         -5.386          6.899         -43.58          22.63          150.0          62.99          127.0
     1.181              -43.81          13.97          69.25          39.64         -5.398          6.901         -43.55          22.73          149.4          62.99          126.9
      1.22              -43.82          13.97          69.17          39.69         -5.412          6.904         -43.52          22.84          148.8           63.0          126.7
